<svg width="876" height="74" viewBox="0 0 876 74" fill="none" xmlns="http://www.w3.org/2000/svg">
<rect x="28.7783" y="44.134" width="36" height="20.7271" fill="#EBDDC9"/>
<path d="M26.1086 31.7644C15.8244 33.1463 10.2338 35.017 1.82617 40.0893C11.2595 42.1452 15.3238 45.0636 18.7012 55.8393C13.2756 63.2956 10.6765 62.4676 9.57617 69.8393C17.3269 64.1879 24.113 64.0718 40.2012 69.0893C46.9997 71.544 54.4512 72.7143 59.4512 72.7143C63.458 72.7143 68.4282 67.2556 64.3262 64.2509C63.3094 63.5061 61.7354 62.9121 59.4512 62.5893C51.4175 62.0155 51.3262 62.3393 38.9512 61.4643C32.258 60.9911 28.1976 62.7022 27.9764 59.4456L27.9762 59.442L26.1086 31.7644Z" fill="white"/>
<path d="M132.716 21.861C93.5684 21.861 46.613 9.85457 25.0762 16.4643L26.1086 31.7644L27.9762 59.442C27.7909 56.6788 30.3702 53.9396 36.4512 52.9643C47.3639 52.3802 54.6521 52.4258 64.3262 53.1206C66.9802 53.3112 110.568 59.4456 132.716 60.5893C163.716 60.5893 372.076 50.9643 372.076 50.9643C481.869 44.542 543.424 45.067 653.216 50.9643C653.216 50.9643 726.216 54.3611 752.216 52.8611L751.216 17.8611C721.716 19.8611 639.716 12.3611 639.716 12.3611C639.716 12.3611 536.216 8.36104 499.716 6.86104C463.216 5.36104 353.576 9.83932 353.576 9.83932C353.576 9.83932 169.364 21.861 132.716 21.861Z" fill="white"/>
<path d="M26.1086 31.7644C15.8244 33.1463 10.2338 35.017 1.82617 40.0893C11.2595 42.1452 15.3238 45.0636 18.7012 55.8393C13.2756 63.2956 10.6765 62.4676 9.57617 69.8393C17.3269 64.1879 24.113 64.0718 40.2012 69.0893C46.9997 71.544 54.4512 72.7143 59.4512 72.7143C63.458 72.7143 68.4282 67.2556 64.3262 64.2509M26.1086 31.7644L27.9762 59.442M26.1086 31.7644L25.0762 16.4643M25.0762 16.4643C46.613 9.85457 93.5684 21.861 132.716 21.861C169.364 21.861 353.576 9.83932 353.576 9.83932C353.576 9.83932 463.216 5.36104 499.716 6.86104C536.216 8.36104 639.716 12.3611 639.716 12.3611C639.716 12.3611 721.716 19.8611 751.216 17.8611L752.216 52.8611C726.216 54.3611 653.216 50.9643 653.216 50.9643C543.424 45.067 481.869 44.542 372.076 50.9643C372.076 50.9643 163.716 60.5893 132.716 60.5893C110.568 59.4456 66.9802 53.3112 64.3262 53.1206M25.0762 16.4643L27.9762 59.442M64.3262 64.2509C63.3094 63.5061 61.7354 62.9121 59.4512 62.5893C51.4175 62.0155 51.3262 62.3393 38.9512 61.4643C32.258 60.9911 28.1976 62.7022 27.9764 59.4456L27.9762 59.442M64.3262 64.2509V53.8393V53.1206M64.3262 53.1206C54.6521 52.4258 47.3639 52.3802 36.4512 52.9643C30.3702 53.9396 27.7909 56.6788 27.9762 59.442M873.216 27.6111V42.1111" stroke="#4E4E4E"/>
<path d="M828.406 34.2629C827.957 34.3178 827.639 34.2026 827.19 34.2575C824.457 34.2835 821.743 34.4612 819.16 34.4688C816.876 34.4398 814.818 33.7667 813.21 31.8055C812.481 30.8157 811.602 29.8442 810.873 28.8545C809.938 27.4274 808.629 26.6627 807.188 26.0683C805.579 25.3402 804.044 25.2196 802.303 25.895C803.33 28.0813 804.489 30.0975 805.498 32.132C806.488 34.0147 807.347 36.0675 808.056 38.1386C808.299 38.8796 808.767 38.9765 809.347 38.7514C810.077 38.508 810.957 38.2462 811.688 38.0028C812.418 37.7594 813.017 37.6861 813.409 38.4088C813.802 39.1315 813.913 40.0427 813.22 40.5898C812.677 41.1187 811.984 41.6658 811.122 42.0794C809.98 42.6815 808.65 42.9982 807.34 43.4667C806.759 43.6919 806.329 43.8987 806.702 44.4695C807.282 45.4776 806.738 46.0064 805.895 46.5719C805.334 46.9489 804.959 47.6113 805.351 48.3339C805.706 48.7529 806.379 49.2871 806.847 49.384C807.633 49.5962 808.045 49.2375 808.065 48.1562C808.066 46.923 808.61 46.3941 809.808 46.2476C810.706 46.1377 811.624 46.1797 812.709 46.3552C815.629 46.6147 818.567 47.0261 821.505 47.4374C822.423 47.4794 823.34 47.5214 824.164 46.804C824.857 46.2569 825.868 45.825 826.767 45.7151C830.923 44.8986 835.155 43.4563 839.404 43.3991C842.754 43.4518 846.217 43.1825 849.661 43.9945C851.064 44.2852 852.749 44.3875 853.814 45.6444C854.338 46.1969 854.656 46.3121 855.274 46.3907C858.325 46.48 861.246 45.5063 864.222 44.9882C865.121 44.8783 866.001 44.6165 866.731 44.3731C867.012 44.1846 867.592 43.9595 867.705 43.6375C868.062 42.8232 868.418 42.009 868.325 41.2497C868.383 39.2388 868.142 37.2646 867.9 35.2904C867.733 33.9236 867.285 32.7454 866.818 31.4152C866.389 30.3888 865.603 30.1767 864.405 30.3232C861.559 30.6712 858.695 30.8673 855.831 31.0633C854.034 31.2831 852.219 31.351 850.44 31.7226C848.942 31.9058 848.83 32.2278 848.548 33.6495C848.472 34.2753 848.397 34.901 848.003 35.4116C847.384 36.5662 846.447 37.6055 845.66 38.6266C845.529 38.7968 845.229 38.8334 845.211 38.6815C844.669 37.9772 843.807 38.3908 843.208 38.464C839.876 38.5632 836.919 38 835.013 34.8422C834.826 34.5567 834.658 34.4232 834.34 34.308C832.936 34.0172 831.402 33.8966 830.539 35.5434C830.164 36.2058 829.621 36.7347 829.227 37.2452C827.934 39.0988 826.361 39.9077 824.021 39.4231C823.404 39.3445 822.618 39.1323 821.963 38.75C821.795 38.6165 821.571 38.0273 821.683 37.7053C821.665 37.5534 822.395 37.31 822.545 37.2917C823.705 38.0747 824.828 37.3207 825.877 37.1925C827.655 36.8209 828.461 35.9517 828.406 34.2629Z" fill="url(#paint0_linear_2302_3)"/>
<path d="M806.856 39.5184C805.979 37.3138 805.438 35.3762 804.429 33.3417C803.57 31.2889 802.58 29.4062 801.589 27.5236C801.178 26.6491 800.261 26.6071 799.905 27.4213C799.211 29.2017 799.134 31.0607 800.087 32.6396C801.245 34.6558 802.554 36.6536 803.862 38.6515C804.797 40.0786 804.647 40.0969 806.276 39.7436C806.425 39.7253 806.725 39.6886 806.856 39.5184Z" fill="#B1CA1D"/>
<path d="M833.056 44.946C831.577 45.281 829.368 45.8594 827.177 46.5897C826.166 47.0216 825.192 47.7572 824.349 48.3227C824.068 48.5112 823.993 49.137 823.899 49.6109C824.217 49.7261 824.703 49.9749 825.003 49.9383C825.77 49.9986 826.519 49.907 827.118 49.8337C830.095 49.3156 833.127 49.253 836.01 49.2088C839.959 49.1882 844.059 49.1494 847.989 48.9769C849.206 48.9823 850.517 48.5137 851.809 47.8933C852.97 47.4431 852.99 46.3617 851.848 45.7306C850.558 45.1178 849.154 44.8271 847.75 44.5363C843.109 43.8708 838.448 44.2867 833.056 44.946Z" fill="#9BD212"/>
<path d="M799.067 42.9371C799.085 43.089 799.104 43.2408 799.104 43.2408C800.47 43.2279 801.687 43.2332 803.035 43.0684C804.233 42.9219 805.431 42.7754 806.61 42.477C808.52 41.9352 810.411 41.2415 811.947 40.1289C812.079 39.9587 812.191 39.6367 812.322 39.4665C812.004 39.3513 811.836 39.2178 811.536 39.2544C811.237 39.291 810.806 39.4978 810.507 39.5344C808.896 40.0396 807.436 40.5265 805.826 41.0316C803.616 41.6101 801.426 42.3404 799.067 42.9371Z" fill="#9BD212"/>
<path d="M840.759 54.4852C841.489 54.2417 842.051 53.8648 842.258 53.0688C842.915 50.9847 842.205 50.1468 840.108 50.4032C839.509 50.4765 838.76 50.568 838.18 50.7932C836.85 51.1098 836.55 52.3797 837.447 53.503C838.438 54.1524 839.393 54.4981 840.759 54.4852Z" fill="#474746"/>
<path d="M871.157 34.584C871.008 34.6023 870.858 34.6206 870.858 34.6206C870.782 35.2463 870.857 35.8538 870.8 36.6314C870.239 35.7752 870.015 35.1861 869.641 34.6152C869.492 34.6335 869.342 34.6519 869.36 34.8037C869.49 35.8668 869.639 37.0816 869.769 38.1447C869.806 38.4484 870.18 39.0192 870.479 38.9826C870.797 39.0978 871.191 38.5873 871.322 38.4171C871.922 37.1107 871.624 35.9141 871.157 34.584Z" fill="#2FA7CC"/>
<path d="M871.28 44.2794C871.13 44.2977 870.98 44.316 870.98 44.316C871.11 45.3791 871.222 46.2902 871.352 47.3533C871.482 48.4163 871.593 49.3275 871.723 50.3905C871.779 50.8461 872.265 51.0949 872.471 51.5322C872.565 51.0583 872.959 50.5477 872.903 50.0922C872.961 48.0813 871.821 46.217 871.28 44.2794Z" fill="#2FA7CC"/>
<path d="M868.195 21.5367C868.118 23.3957 868.509 25.3516 869.331 27.1007C869.389 25.0899 869.316 23.2492 868.195 21.5367Z" fill="#2FA7CC"/>
<path d="M845.502 28.6274C846.493 29.2768 847.316 29.7927 848.308 30.4421C846.921 31.5364 848.211 33.3824 846.881 34.9323C846.902 32.6177 845.35 31.1121 845.502 28.6274Z" fill="#7CE4FC"/>
<path d="M782.862 37.212C782.319 37.7408 781.626 38.288 781.045 38.5131C777.637 40.4712 774.06 42.2958 770.651 44.254C766.232 46.6441 761.662 49.0524 757.261 51.5944C756.268 52.1782 755.276 52.7619 754.283 53.3457C753.29 53.9295 753.122 53.7959 752.973 52.5811C752.881 51.8217 752.788 51.0624 752.845 50.2848C752.849 45.352 752.723 40.5893 752.746 35.8083C752.92 31.009 751.595 26.3929 751.019 21.6851C750.815 20.0147 750.592 18.1923 750.351 16.2181C751.137 16.4303 751.754 16.5089 752.241 16.7577C753.868 17.6375 755.664 18.651 757.292 19.5309C761.052 21.6913 764.831 24.0036 768.591 26.1641C771.21 27.6934 773.998 29.3563 776.617 30.8856C778.749 32.1662 780.714 33.3132 782.696 34.612C784.193 35.6621 784.08 35.9841 782.862 37.212Z" fill="url(#paint1_linear_2302_3)"/>
<path fill-rule="evenodd" clip-rule="evenodd" d="M872.031 41.7214C871.788 40.9804 871.845 40.2028 872.37 39.522C873.532 37.8386 872.955 34.3641 871.421 33.0103C870.898 32.4578 870.543 32.0388 870.599 31.2612C870.507 30.5019 870.563 29.7243 870.639 29.0985C870.773 26.4619 870.457 23.8802 869.842 21.3352C869.562 20.2905 868.589 19.7929 867.709 20.0547C866.698 20.4866 867.09 21.2093 867.333 21.9503C867.574 23.9245 868.841 30.5515 869.028 30.8369L868.878 30.8552C868.859 30.7033 867.832 28.517 865.904 28.9069C864.855 29.0351 863.975 29.2969 862.927 29.4251C859.464 29.6944 855.982 29.8119 852.519 30.0812C851.321 30.2278 850.385 30.0339 849.375 29.2326C848.534 28.5649 847.71 28.049 846.887 27.5331C845.746 26.902 845.184 27.279 844.865 28.397C844.789 29.0227 844.714 29.6485 844.938 30.2376C845.012 30.8451 845.236 31.4342 845.46 32.0233C845.927 33.3535 845.665 33.6938 844.28 33.5549C843.194 33.3794 842.24 33.0337 841.154 32.8582C841.211 32.0805 841.418 31.2846 841.475 30.507C841.495 29.4256 840.784 28.5877 839.699 28.4122C838.613 28.2366 837.733 28.4984 837.059 29.1974C836.235 29.9147 835.916 29.7995 835.225 29.1134C832.849 27.0919 830.566 27.0629 828.056 28.9111C827.213 29.4766 826.52 30.0238 825.49 30.3038C824.03 30.7907 822.419 31.2959 820.792 30.416C820.455 30.1489 819.856 30.2221 819.407 30.2771C818.808 30.3503 818.695 30.6724 819.069 31.2432C819.611 31.9475 819.985 32.5184 820.527 33.2227C819.647 33.4845 819.029 33.4059 818.412 33.3273C816.054 32.6908 814.483 31.0333 813.175 29.0354C810.782 25.6288 806.909 23.7904 802.94 24.8923C799.42 25.9393 798.238 28.7041 799.32 32.5792C799.6 33.624 800.161 34.4802 800.74 35.4883C799.373 35.5012 798.288 35.3257 797.221 35.302C794.638 35.3097 791.924 35.4874 789.322 35.3432C787.338 35.2775 785.485 35.0417 783.82 33.8581C782.661 33.0751 781.351 32.3105 780.191 31.5275C774.972 28.6207 769.921 25.8474 764.701 22.9406C760.286 20.3979 756.096 17.211 751.438 15.1605C750.483 14.8148 749.792 14.1287 749.191 15.4352C748.929 15.7755 750.144 17.0141 749.564 17.2392C749.62 17.6948 749.825 18.1321 749.862 18.4358C750.735 25.5733 751.926 32.8261 751.75 40.0918C751.522 44.4355 751.555 48.4388 751.457 52.6124C751.438 53.6937 751.605 55.0605 751.698 55.8198C752.559 55.4062 753.439 55.1444 754.151 54.7491C759.563 51.7753 764.807 48.6679 770.22 45.694C771.643 44.9035 773.048 43.961 774.621 43.1521C778.329 41.1573 781.906 39.3327 785.632 37.4898C785.782 37.4715 785.913 37.3013 786.045 37.1312C786.551 36.2986 787.468 36.3406 788.235 36.4009C789.302 36.4245 790.388 36.6001 791.455 36.6237C794.506 36.713 797.407 36.8207 800.458 36.91C800.757 36.8734 801.244 37.1221 801.431 37.4075C801.823 38.1302 802.234 39.0048 802.645 39.8793C803.074 40.9057 802.943 41.0759 801.913 41.356L797.925 42.306C797.195 42.5494 796.783 42.9081 796.876 43.6674C796.969 44.4267 797.736 44.487 798.204 44.5839C799.626 45.0266 801.124 44.8434 802.603 44.5084C803.333 44.265 804.232 44.1551 804.737 44.5558C805.578 45.2235 804.754 45.9408 804.398 46.7551C803.722 48.6873 804.694 50.4181 806.696 50.6356C807.314 50.7142 807.913 50.641 808.512 50.5677C809.86 50.4029 810.122 50.0625 809.787 48.5622C809.544 47.8212 809.956 47.4626 810.405 47.4076C810.855 47.3527 811.472 47.4313 811.922 47.3763C812.689 47.4366 813.494 47.8007 814.261 47.861C816.413 48.0601 818.715 48.241 820.868 48.4402C821.785 48.4822 822.552 48.5425 822.27 49.9642C822.158 50.2862 822.513 50.7052 822.681 50.8387C823.373 51.5248 824.29 51.5668 825.189 51.4569L831.778 50.6511C832.976 50.5046 834.361 50.6435 835.728 50.6305C835.333 52.3743 834.938 54.118 836.734 55.1315C838.38 56.1632 840.401 56.5326 842.087 55.4017C843.773 54.2707 843.55 52.4484 843.177 50.6443C845.424 50.3696 847.839 50.2285 850.085 49.9538C851.133 49.8256 852.294 49.3753 853.287 48.7916C854.28 48.2078 855.16 47.946 856.358 47.7995L863.041 46.5198C864.09 46.3916 865.101 45.9597 865.999 45.8498C867.665 45.8002 868.939 45.028 869.633 43.2476C870.492 45.3004 870.284 47.3296 870.376 49.3221C870.393 50.7072 870.841 51.8854 871.739 53.0088C872.618 53.9802 873.348 53.7368 873.817 52.6005C874.548 51.1239 874.363 49.6052 873.859 47.9714C873.206 45.894 872.71 44.1513 872.234 42.4504C872.166 42.2076 872.099 41.9649 872.031 41.723L872.031 41.7214ZM781.046 38.5131C781.626 38.288 782.319 37.7409 782.862 37.212C784.08 35.9842 784.193 35.6621 782.697 34.612C780.714 33.3132 778.749 32.1662 776.617 30.8857C773.998 29.3563 771.21 27.6935 768.591 26.1641C764.831 24.0037 761.052 21.6914 757.292 19.5309C755.665 18.651 753.869 17.6376 752.241 16.7577C751.755 16.5089 751.137 16.4303 750.351 16.2181L751.02 21.6852C751.595 26.3929 752.92 31.0091 752.747 35.8084C752.723 40.5893 752.85 45.352 752.845 50.2848C752.788 51.0625 752.881 51.8218 752.974 52.5811C753.122 53.796 753.291 53.9295 754.283 53.3458L757.261 51.5944C761.662 49.0525 766.232 46.6441 770.652 44.254C774.06 42.2959 777.637 40.4713 781.046 38.5131ZM845.119 36.6891C845.849 36.4457 845.906 35.668 845.682 35.0789C845.441 34.6357 844.7 35.2392 844.024 35.7892C843.598 36.136 843.198 36.4616 842.967 36.4899L843.022 36.9455C843.278 36.9142 843.518 36.9028 843.752 36.8916C844.206 36.8701 844.638 36.8495 845.119 36.6891ZM836.758 30.4672C836.608 30.4856 836.477 30.6557 836.496 30.8076C836.415 30.9128 836.448 31.004 836.494 31.13C836.522 31.2078 836.556 31.299 836.57 31.415C836.683 31.093 836.814 30.9228 836.945 30.7527C836.945 30.7527 836.777 30.6191 836.758 30.4672ZM831.238 28.8303C830.003 28.6731 828.823 28.9714 827.736 30.0291C827.998 29.9357 828.253 29.843 828.503 29.7522L828.61 29.7133C829.57 29.3641 830.443 29.0465 831.238 28.8303ZM829.025 33.1083C829.325 33.0717 829.624 33.0351 829.905 32.8466C830.679 32.5465 831.436 32.1113 832.194 31.6762C832.573 31.4586 832.951 31.241 833.332 31.0403C831.967 29.8201 830.787 30.1184 823.728 33.2937C824.635 33.2598 825.506 33.2304 826.376 33.201C827.247 33.1717 828.117 33.1423 829.025 33.1083ZM799.924 27.5731C799.379 29.3352 799.134 31.0606 800.106 32.7914C800.569 33.5979 801.081 34.3985 801.592 35.1991C802.359 36.4 803.126 37.6009 803.731 38.8216C804.219 39.5668 804.453 39.9229 804.775 40.0453C805.069 40.1573 805.438 40.0738 806.145 39.9137C806.32 39.8922 806.49 39.8187 806.63 39.7577C806.729 39.7146 806.813 39.6778 806.875 39.6703C806.545 38.8411 806.239 38.0309 805.941 37.2415C805.446 35.9319 804.972 34.6796 804.448 33.4935C803.607 31.5926 802.599 29.5581 801.608 27.6754C801.048 26.8192 800.28 26.7589 799.924 27.5731ZM799.085 43.089L799.122 43.3927L799.495 43.3895C800.713 43.3793 801.829 43.37 803.053 43.2203C804.251 43.0738 805.45 42.9273 806.61 42.477C808.52 41.9352 810.262 41.2599 811.947 40.1289C812.139 40.1055 812.185 39.9098 812.228 39.7275C812.252 39.6255 812.275 39.5276 812.322 39.4666C812.248 39.4395 812.181 39.4115 812.12 39.3849L812.093 39.3736C811.905 39.292 811.756 39.2276 811.536 39.2544C811.387 39.2727 811.204 39.3336 811.022 39.3944C810.839 39.4553 810.656 39.5161 810.507 39.5345C809.702 39.787 808.934 40.0351 808.166 40.2831C807.399 40.5311 806.631 40.7791 805.826 41.0317C804.76 41.3726 803.721 41.6782 802.699 41.979C801.477 42.3386 800.278 42.6913 799.085 43.089ZM840.741 54.3333C841.489 54.2417 842.033 53.7129 842.239 52.9169C842.915 50.9847 842.205 50.1468 840.239 50.233C839.64 50.3062 838.891 50.3978 838.311 50.6229C837 51.0915 836.55 52.3796 837.578 53.3328C838.438 54.1524 839.542 54.4798 840.741 54.3333ZM847.99 48.977C849.337 48.8121 850.648 48.3436 851.809 47.8933C853.12 47.4248 853.14 46.3435 851.867 45.8825C850.576 45.2697 849.173 44.9789 847.769 44.6882C843.109 43.8708 838.448 44.2867 833.057 44.946C831.578 45.281 829.368 45.8594 827.178 46.5897C826.148 46.8698 825.174 47.6054 824.349 48.3227C824.087 48.6631 823.993 49.137 823.899 49.6109C823.974 49.6381 824.059 49.6727 824.148 49.7093C824.436 49.8277 824.774 49.9663 825.003 49.9383C825.621 50.0169 826.369 49.9253 827.118 49.8337C830.002 49.3318 832.797 49.2746 835.726 49.2147L836.01 49.2088C839.978 49.3401 843.909 49.1677 847.99 48.977ZM866.993 44.0328C867.424 43.826 867.855 43.6192 867.967 43.2972C868.036 43.0319 868.122 42.7645 868.207 42.4972C868.378 41.9625 868.549 41.4278 868.587 40.9094C868.496 38.9169 868.404 36.9243 868.593 34.7433C868.426 33.3766 867.959 32.0464 867.511 30.8682C867.082 29.8418 866.296 29.6296 865.098 29.7761C863.675 29.9501 862.243 30.0481 860.811 30.1462C859.379 30.2442 857.947 30.3423 856.524 30.5163L851.133 31.1756C849.635 31.3587 849.523 31.6807 849.24 33.1024C849.165 33.7282 848.94 34.3723 848.696 34.8645C847.927 36.0374 847.14 37.0585 846.353 38.0795L845.904 38.1344C845.544 37.6676 845.119 37.7505 844.649 37.842C844.41 37.8885 844.16 37.9373 843.901 37.9169C840.719 37.9978 837.612 37.4529 835.706 34.2951C835.519 34.0097 835.332 33.7242 835.033 33.7609C834.951 33.7527 834.869 33.744 834.786 33.7353C833.467 33.5965 832.044 33.4467 831.232 34.9963C830.978 35.4456 830.646 35.8334 830.336 36.1957C830.189 36.3676 830.047 36.5338 829.92 36.6981C828.608 38.3999 826.885 39.2271 824.714 38.876C824.526 38.8252 824.347 38.782 824.175 38.7405C823.63 38.6087 823.154 38.4936 822.656 38.2029C822.488 38.0694 822.264 37.4802 822.376 37.1582C822.339 36.8545 823.069 36.611 823.238 36.7446C824.2 37.394 825.149 37.0906 826.033 36.8084C826.215 36.7504 826.394 36.6932 826.569 36.6454C827.917 36.4806 828.723 35.6114 828.669 33.9226C828.421 33.9528 828.168 33.9371 827.941 33.9229C827.755 33.9113 827.587 33.9008 827.452 33.9172C824.887 34.0767 822.155 34.1026 819.422 34.1286C817.138 34.0995 814.93 33.4448 813.472 31.4652C813.107 30.9703 812.705 30.48 812.304 29.9897C811.902 29.4994 811.5 29.0091 811.135 28.5142C810.219 27.239 808.891 26.3225 807.45 25.728C805.991 24.9816 804.307 24.8793 802.565 25.5547C803.742 27.7227 804.751 29.7572 805.76 31.7917C806.189 32.8178 806.614 33.8058 807.039 34.7939L807.039 34.795L807.04 34.7962C807.464 35.7843 807.889 36.7723 808.318 37.7983C808.711 38.521 809.029 38.6363 809.609 38.4111C809.974 38.2894 810.377 38.1631 810.78 38.0368C811.182 37.9105 811.585 37.7842 811.95 37.6625C812.53 37.4374 813.279 37.3458 813.671 38.0685C814.064 38.7912 814.175 39.7024 813.482 40.2495C812.808 40.9485 812.096 41.3438 811.384 41.7391C810.491 42.1682 809.651 42.4432 808.785 42.727C808.398 42.8536 808.006 42.9819 807.602 43.1265C807.003 43.1997 806.591 43.5584 806.965 44.1292C807.562 45.2892 807 45.6661 806.158 46.2316C805.596 46.6086 805.239 47.4228 805.613 47.9937C805.819 48.4309 806.473 48.8133 807.109 49.0437C807.895 49.2559 808.289 48.7454 808.327 47.8159C808.497 46.7162 808.872 46.0538 810.07 45.9073C810.793 45.819 811.462 45.8836 812.108 45.946C812.399 45.9742 812.686 46.0019 812.971 46.0149C814.44 46.2206 815.905 46.3883 817.369 46.556C818.834 46.7237 820.298 46.8915 821.768 47.0971C822.685 47.1391 823.602 47.1811 824.426 46.4638C825.073 45.9528 826.014 45.6747 826.853 45.427L827.029 45.3748C827.795 45.1954 828.56 45.0057 829.326 44.815L829.479 44.777L829.48 44.7767C832.799 43.9504 836.136 43.1194 839.666 43.0588C840.187 43.064 840.704 43.0661 841.219 43.0683L841.22 43.0683C844.161 43.0805 847.008 43.0924 849.923 43.6542C850.092 43.6839 850.262 43.7119 850.43 43.7397C851.806 43.9665 853.127 44.1845 854.077 45.3041C854.45 45.8749 854.918 45.9718 855.536 46.0504C857.671 46.113 859.743 45.6546 861.815 45.1962C862.703 44.9998 863.591 44.8033 864.484 44.6479C865.233 44.5563 866.113 44.2946 866.993 44.0328ZM868.194 21.5367C867.968 23.414 868.49 25.1997 869.331 27.1006L869.334 26.9992C869.391 25.0272 869.444 23.2023 868.194 21.5367ZM869.51 34.7853C869.529 34.9372 869.379 34.9555 869.229 34.9738C869.272 35.3227 869.301 35.6899 869.33 36.0628C869.389 36.826 869.45 37.6129 869.638 38.3148C869.825 38.6002 870.199 39.171 870.348 39.1527C870.517 39.2862 871.079 38.9092 871.191 38.5872C871.792 37.2807 871.475 35.9323 871.027 34.754L870.727 34.7907C870.671 35.0706 870.675 35.3971 870.679 35.809L870.679 35.8103C870.681 36.0955 870.685 36.4216 870.669 36.8015C870.36 36.3301 870.154 35.9397 869.968 35.5887C869.816 35.3022 869.678 35.0419 869.51 34.7853ZM870.98 44.316L871.351 47.3532C871.395 47.7134 871.42 48.0582 871.444 48.3974C871.492 49.0593 871.538 49.6997 871.723 50.3905C871.755 50.6537 871.931 50.8479 872.113 51.0493C872.247 51.1964 872.383 51.3475 872.47 51.5321C872.508 51.3426 872.593 51.1471 872.679 50.9517C872.807 50.6586 872.936 50.3655 872.902 50.0921C872.941 48.7515 872.447 47.4761 871.953 46.2007C871.707 45.5629 871.46 44.9252 871.279 44.2794L870.98 44.316ZM845.501 28.6274C845.997 28.9521 846.451 29.2435 846.904 29.5348C847.358 29.8261 847.811 30.1174 848.307 30.4422C847.605 30.9961 847.589 31.7425 847.572 32.5457C847.555 33.3294 847.537 34.167 846.88 34.9324C846.89 33.8323 846.545 32.9149 846.196 31.9884C845.811 30.9654 845.421 29.9312 845.501 28.6274Z" fill="#4E4E4E"/>
<path fill-rule="evenodd" clip-rule="evenodd" d="M836.496 30.8076C836.477 30.6557 836.608 30.4856 836.758 30.4672C836.777 30.6191 836.945 30.7527 836.945 30.7527C836.814 30.9228 836.683 31.093 836.57 31.415C836.556 31.299 836.522 31.2078 836.494 31.13C836.448 31.004 836.415 30.9128 836.496 30.8076ZM831.238 28.8303C830.443 29.0465 829.57 29.3641 828.61 29.7133L828.503 29.7522C828.253 29.843 827.998 29.9357 827.736 30.0291C828.823 28.9714 830.003 28.6731 831.238 28.8303Z" fill="#4E4E4E"/>
<defs>
<linearGradient id="paint0_linear_2302_3" x1="834.027" y1="21.8032" x2="837.323" y2="48.7549" gradientUnits="userSpaceOnUse">
<stop stop-color="#E7BCFF"/>
<stop offset="1" stop-color="#D69EF5"/>
</linearGradient>
<linearGradient id="paint1_linear_2302_3" x1="764.748" y1="14.4575" x2="769.308" y2="51.7481" gradientUnits="userSpaceOnUse">
<stop stop-color="#5989B9"/>
<stop offset="1" stop-color="#3A74AD"/>
</linearGradient>
</defs>
</svg>
