<svg width="31" height="11" viewBox="0 0 31 11" fill="none" xmlns="http://www.w3.org/2000/svg">
<path d="M2.08869 9.09757C2.30016 9.09757 2.30016 9.09757 2.30016 9.09757C2.7231 8.88598 3.14604 8.46281 3.56898 8.03964C5.68368 5.71219 8.22132 4.44267 10.5475 3.38473C10.759 3.38473 10.9704 3.38473 11.1819 3.38473C11.3934 3.38473 11.6048 3.38474 11.8163 3.59632C12.8737 4.65426 13.7196 5.92378 14.7769 7.1933C14.9884 7.61647 15.4113 7.82805 15.6228 8.25123C15.6228 8.25123 15.6228 8.25123 15.4113 8.25123C15.1998 8.46281 14.7769 8.46281 14.5654 8.67439C14.5654 8.67439 14.354 8.6744 14.354 8.88599C13.931 9.09757 13.5081 9.30915 13.5081 9.73233C13.5081 9.94391 13.5081 10.1555 13.7195 10.3671C13.931 10.5787 14.1425 10.5787 14.5654 10.5787C14.9884 10.5787 15.4113 10.5787 15.6228 10.3671C15.8343 10.3671 16.2572 9.94391 16.4687 9.73233C16.6801 9.52074 16.8916 9.30916 17.1031 9.30916C17.3145 9.30916 17.526 9.09757 17.7375 9.09757C17.949 9.09757 17.949 9.09757 18.1604 9.09757C18.3719 9.09757 18.7948 9.09757 19.0063 9.30916C19.2178 9.30916 19.2178 9.30916 19.4292 9.30916C19.4292 9.30916 19.4292 9.30916 19.6407 9.30916C19.6407 9.30916 19.6407 9.30915 19.6407 9.09757C19.6407 8.88598 19.6407 8.88598 19.6407 8.67439C19.6407 8.25122 19.8522 8.03963 19.6407 7.61646C18.7948 6.13536 19.6407 5.5006 20.6981 4.65426C20.9095 4.44267 20.9095 4.44267 21.121 4.23108C21.3325 4.23108 21.5439 4.01949 21.5439 3.80791C21.9669 3.59632 22.1784 3.38473 22.3898 3.38473C22.8128 3.38473 23.0242 3.59632 23.4472 4.23108C24.716 5.71219 26.1963 6.98171 27.4651 8.46281L27.8881 8.88599C28.0995 9.09757 28.5225 9.30916 28.7339 9.30916C28.9454 9.30916 29.3683 9.09757 29.7913 8.67439C30.0028 8.25122 30.2142 8.03963 30.0028 7.61646C30.0028 7.40488 29.5798 6.98171 29.1569 6.77012C27.0422 5.92378 25.3504 4.44267 24.2931 2.53839V2.3268C23.6586 1.26887 23.4472 0.845703 22.8128 0.845703C22.3898 0.845703 21.9669 1.26888 21.121 1.90364C19.8522 2.96157 18.7948 4.0195 17.7375 5.07743C17.3145 5.5006 16.8916 5.92377 16.4687 6.34695C14.9884 5.28901 14.1425 4.01949 13.5081 2.3268C13.0851 1.26887 12.6622 0.845703 11.8163 0.845703C11.3934 0.845703 10.9704 1.05728 10.5475 1.26887C7.16397 3.17315 3.99192 5.28902 1.03134 7.1933C0.819868 7.40488 0.608398 7.61647 0.608398 7.82805C0.608398 8.03964 0.608398 8.25122 0.608398 8.46281C1.45428 8.88598 1.87722 9.09757 2.08869 9.09757Z" fill="#4E4E4E"/>
</svg>
