<svg width="29" height="9" viewBox="0 0 29 9" fill="none" xmlns="http://www.w3.org/2000/svg">
<path d="M1.39448 2.5488C0.971537 2.5488 0.760047 2.76039 0.548577 2.97197C0.548577 3.18356 0.337106 3.39515 0.548577 3.60673C0.760047 4.02991 1.39447 4.24149 1.81741 4.24149C2.02888 4.24149 2.02889 4.24149 2.02889 4.24149C3.08625 3.81832 4.1436 3.39515 5.20095 2.97197C5.83536 2.76039 6.25827 2.5488 6.89269 2.12563C7.5271 1.91404 7.95004 1.70245 8.58445 1.49087C8.79593 1.49087 9.21889 1.27928 9.43036 1.27928C9.64183 1.27928 9.85327 1.49087 10.0647 1.49087C10.4877 1.70245 11.1221 1.91404 11.3336 2.12563C12.1795 2.5488 12.8139 3.39515 13.4483 4.02991C14.0827 4.66467 14.5056 5.29943 14.5056 5.51101C14.5056 5.7226 13.8712 6.14577 13.0253 6.56895C13.0253 6.56895 12.8139 6.56894 12.8139 6.78053C12.6024 6.99212 12.1795 6.99212 11.968 7.41529C11.968 7.62688 11.968 7.83846 12.1794 8.05005C12.3909 8.47322 13.0253 8.47322 13.4483 8.47322C13.6597 8.47322 13.6597 8.47322 13.8712 8.47322C15.3515 8.05005 17.0433 7.62688 18.3121 6.99212C18.735 6.78053 18.9465 6.14577 18.9465 6.14577V5.93418C18.735 5.7226 18.5236 5.7226 18.5236 5.51101C18.5236 5.29943 18.735 5.08784 18.9465 4.87625C18.9465 4.87625 18.9465 4.87625 19.158 4.66466C20.4268 3.39515 21.0612 2.97197 21.6956 2.97197C22.33 2.97197 22.9645 3.39515 24.2333 4.02991C24.4447 4.24149 24.6562 4.45308 25.0791 4.45308C25.5021 4.66467 25.925 5.08784 26.348 5.29943C26.7709 5.51101 27.4053 5.7226 27.8283 5.7226C28.2512 5.7226 28.6741 5.51101 28.8856 5.08784V4.87625C28.8856 4.66467 28.6742 4.24149 28.4627 4.02991C26.7709 2.97197 25.0791 1.91404 23.3874 1.0677C22.9644 0.856111 22.753 0.856111 22.33 0.856111C21.9071 0.856111 21.2727 1.0677 20.8497 1.70246C20.2153 2.33721 19.3694 2.97197 18.5236 3.60673C18.1006 3.81832 17.8891 4.02991 17.4662 4.45308C17.2547 4.66467 16.8318 4.87625 16.6203 4.87625C16.1974 4.87625 15.9859 4.66467 15.7745 4.24149C15.3515 3.60673 14.9286 3.18356 14.5056 2.5488C14.0827 2.12563 13.8712 1.70246 13.4483 1.27928C12.6024 0.221353 12.1795 0.00976562 11.5451 0.00976562C11.1221 0.00976562 10.6992 0.22135 10.0647 0.432936C7.73857 1.27928 5.20093 2.12563 2.24035 2.97197C1.60593 2.5488 1.60595 2.5488 1.39448 2.5488Z" fill="#4E4E4E"/>
</svg>
