<svg width="30" height="10" viewBox="0 0 30 10" fill="none" xmlns="http://www.w3.org/2000/svg">
<path d="M1.5589 3.0822C1.1258 3.0822 0.909229 3.29887 0.69268 3.51553C0.69268 3.7322 0.47613 3.94887 0.69268 4.16554C0.909229 4.59887 1.55889 4.81555 1.99199 4.81555C2.20854 4.81555 2.20855 4.81555 2.20855 4.81555C3.2913 4.38221 4.37405 3.94887 5.45679 3.51553C6.10644 3.29887 6.53952 3.0822 7.18916 2.64886C7.83881 2.43219 8.27192 2.21552 8.92157 1.99885C9.13812 1.99885 9.57123 1.78219 9.78778 1.78219C10.0043 1.78219 10.2209 1.99885 10.4374 1.99885C10.8705 2.21552 11.5202 2.43219 11.7367 2.64886C12.6029 3.0822 13.2526 3.94887 13.9022 4.59888C14.5519 5.24888 14.985 5.89889 14.985 6.11556C14.985 6.33223 14.3353 6.76556 13.4691 7.1989C13.4691 7.1989 13.2526 7.1989 13.2526 7.41556C13.036 7.63223 12.6029 7.63223 12.3864 8.06557C12.3864 8.28224 12.3864 8.49891 12.6029 8.71558C12.8195 9.14891 13.4691 9.14891 13.9022 9.14891C14.1188 9.14891 14.1188 9.14891 14.3353 9.14891C15.8511 8.71558 17.5836 8.28224 18.8829 7.63223C19.316 7.41556 19.5325 6.76556 19.5325 6.76556V6.54889C19.316 6.33222 19.0994 6.33223 19.0994 6.11556C19.0994 5.89889 19.316 5.68222 19.5325 5.46555C19.5325 5.46555 19.5325 5.46555 19.749 5.24888C21.0483 3.94887 21.698 3.51553 22.3476 3.51553C22.9973 3.51553 23.6469 3.94887 24.9462 4.59888C25.1628 4.81554 25.3793 5.03221 25.8124 5.03221C26.2455 5.24888 26.6786 5.68222 27.1117 5.89889C27.5448 6.11556 28.1945 6.33222 28.6276 6.33222C29.0607 6.33222 29.4938 6.11556 29.7103 5.68222V5.46555C29.7103 5.24888 29.4938 4.81554 29.2772 4.59888C27.5448 3.51553 25.8124 2.43219 24.08 1.56552C23.6469 1.34885 23.4304 1.34885 22.9973 1.34885C22.5642 1.34885 21.9145 1.56552 21.4814 2.21552C20.8318 2.86553 19.9656 3.51553 19.0994 4.16554C18.6663 4.38221 18.4497 4.59888 18.0166 5.03221C17.8001 5.24888 17.367 5.46555 17.1505 5.46555C16.7174 5.46555 16.5008 5.24888 16.2843 4.81555C15.8512 4.16554 15.4181 3.7322 14.985 3.0822C14.5519 2.64886 14.3353 2.21553 13.9022 1.78219C13.036 0.698847 12.6029 0.482178 11.9533 0.482178C11.5202 0.482178 11.0871 0.698844 10.4374 0.915512C8.05536 1.78219 5.45677 2.64886 2.42508 3.51553C1.77543 3.0822 1.77545 3.0822 1.5589 3.0822Z" fill="#4E4E4E"/>
</svg>
