<svg width="33" height="10" viewBox="0 0 33 10" fill="none" xmlns="http://www.w3.org/2000/svg">
<path d="M1.25598 3.25551C0.782095 3.25551 0.545131 3.49258 0.308189 3.72966C0.308189 3.96673 0.0712463 4.2038 0.308189 4.44087C0.545131 4.91502 1.25597 5.15209 1.72986 5.15209C1.9668 5.15209 1.96681 5.15209 1.96681 5.15209C3.15152 4.67795 4.33624 4.2038 5.52095 3.72966C6.23177 3.49258 6.70563 3.25551 7.41645 2.78137C8.12728 2.5443 8.60117 2.30722 9.312 2.07015C9.54894 2.07015 10.0228 1.83308 10.2598 1.83308C10.4967 1.83308 10.7336 2.07015 10.9706 2.07015C11.4445 2.30722 12.1553 2.5443 12.3923 2.78137C13.34 3.25551 14.0509 4.2038 14.7617 4.91502C15.4725 5.62623 15.9464 6.33745 15.9464 6.57452C15.9464 6.8116 15.2356 7.28574 14.2878 7.75989C14.2878 7.75989 14.0508 7.75988 14.0508 7.99695C13.8139 8.23403 13.34 8.23403 13.1031 8.70817C13.1031 8.94525 13.1031 9.18232 13.34 9.41939C13.577 9.89353 14.2878 9.89354 14.7617 9.89354C14.9986 9.89354 14.9986 9.89354 15.2356 9.89354C16.8941 9.41939 18.7897 8.94524 20.2114 8.23403C20.6852 7.99696 20.9222 7.28574 20.9222 7.28574V7.04867C20.6852 6.81159 20.4483 6.8116 20.4483 6.57452C20.4483 6.33745 20.6852 6.10038 20.9222 5.86331C20.9222 5.86331 20.9222 5.8633 21.1591 5.62623C22.5808 4.2038 23.2916 3.72966 24.0024 3.72966C24.7132 3.72966 25.4241 4.2038 26.8457 4.91502C27.0827 5.15209 27.3196 5.38916 27.7935 5.38916C28.2674 5.62624 28.7413 6.10038 29.2152 6.33745C29.689 6.57452 30.3999 6.81159 30.8738 6.81159C31.3476 6.81159 31.8215 6.57452 32.0585 6.10038V5.86331C32.0585 5.62623 31.8215 5.15209 31.5846 4.91502C29.689 3.72966 27.7935 2.5443 25.898 1.59601C25.4241 1.35893 25.1871 1.35893 24.7132 1.35893C24.2394 1.35893 23.5285 1.596 23.0547 2.30722C22.3438 3.01844 21.396 3.72965 20.4483 4.44087C19.9744 4.67794 19.7374 4.91502 19.2636 5.38916C19.0266 5.62624 18.5528 5.86331 18.3158 5.86331C17.8419 5.86331 17.605 5.62623 17.3681 5.15209C16.8942 4.44087 16.4203 3.96673 15.9464 3.25551C15.4725 2.78136 15.2356 2.30722 14.7617 1.83308C13.8139 0.647718 13.34 0.410645 12.6292 0.410645C12.1553 0.410645 11.6814 0.647714 10.9706 0.884786C8.36422 1.83308 5.52092 2.78137 2.20373 3.72966C1.49291 3.25551 1.49292 3.25551 1.25598 3.25551Z" fill="#4E4E4E"/>
</svg>
