<svg width="21" height="9" viewBox="0 0 21 9" fill="none" xmlns="http://www.w3.org/2000/svg">
<path d="M1.40212 5.77115C1.40212 5.77115 1.60575 5.77115 1.40212 5.77115C1.80938 5.77115 2.01301 5.56741 2.21664 5.56741H2.42026C2.82752 5.36366 3.23479 5.15992 3.64205 4.95618C4.25294 4.5487 5.06745 4.14122 5.67834 3.93748C6.49286 3.52999 6.90011 3.32625 7.30737 3.32625C7.91825 3.32625 8.32551 3.73374 9.14003 4.5487C9.34366 4.75244 9.54729 4.95618 9.95455 5.36366L10.1582 5.56741C9.95455 5.77115 9.75091 5.77115 9.54728 5.97489C8.73277 6.38237 8.12188 6.78985 7.30737 7.19733C7.10374 7.40107 7.10374 7.60482 6.90011 8.0123C6.90011 8.21604 6.90011 8.21604 6.90011 8.21604V8.41978C6.90011 8.41978 6.90011 8.41978 7.10374 8.41978H7.30737C7.51099 8.41978 7.71463 8.62352 8.12189 8.62352C8.32551 8.62352 8.52915 8.41978 8.73278 8.41978C8.73278 8.41978 8.93641 8.41978 8.93641 8.21604C9.75092 7.60481 10.3618 7.40107 11.1763 7.40107C11.5836 7.40107 11.9908 7.60482 12.3981 7.80856C12.6017 7.80856 12.8054 8.0123 13.009 8.0123C13.2126 8.0123 13.6199 8.0123 14.0271 7.80856C14.2307 7.80856 14.638 7.60482 15.0453 7.60482C15.0453 7.60482 15.2489 7.60482 15.2489 7.40107V7.19733C15.0453 6.99359 14.8417 6.78985 14.8417 6.58611C14.638 6.38237 14.4344 6.17863 14.2308 5.97489C13.4162 5.15992 13.2126 4.95618 14.0271 4.14122C14.4344 3.73373 14.8416 3.32625 15.0453 3.32625C15.2489 3.32625 15.6562 3.52999 16.0634 3.73373C16.4707 3.93748 16.6743 4.34496 17.0816 4.75244C17.4888 5.15992 18.0997 5.5674 18.7106 5.97489C18.9142 6.17863 19.1179 6.17863 19.3215 6.17863C19.5251 6.17863 19.5251 6.17863 19.7287 6.17863C19.9324 6.17863 19.9324 6.17863 20.136 6.17863H20.3396V5.97489C20.3396 5.77115 20.3396 5.77115 20.3396 5.56741C20.3396 5.15992 20.136 4.95618 19.9324 4.75244C19.5251 4.34496 18.9142 3.73373 18.507 3.32625C17.8961 2.91877 17.2852 2.30755 16.8779 1.69632C16.6743 1.49258 16.2671 1.0851 15.8598 1.0851C15.6562 1.0851 15.2489 1.28884 15.0453 1.49258C14.8416 1.69632 14.4344 1.90007 14.2308 2.10381C13.6199 2.51129 13.2126 2.91877 12.6017 3.52999C12.3981 3.93748 12.1945 3.93748 11.7872 3.93748C11.5836 3.93748 11.38 3.73373 10.9727 3.32625C10.5654 2.91877 10.3618 2.51129 9.95455 2.10381C9.75092 1.69632 9.54729 1.49258 9.34366 1.0851C8.9364 0.677618 8.73277 0.473877 8.32551 0.473877C8.12188 0.473877 7.71462 0.677619 7.30737 0.88136C6.49285 1.49258 5.27108 2.30755 4.0493 2.91877C3.64204 3.12251 3.03116 3.32625 2.6239 3.52999C2.21665 3.73373 1.80939 3.73374 1.60576 3.93748C1.40213 3.93748 0.994865 4.34496 0.994865 4.5487V4.75244C0.587607 5.15992 0.994859 5.5674 1.40212 5.77115Z" fill="#4E4E4E"/>
</svg>
