<svg width="32" height="11" viewBox="0 0 32 11" fill="none" xmlns="http://www.w3.org/2000/svg">
<path d="M2.34104 8.67833C2.55759 8.67833 2.55759 8.67833 2.55759 8.67833C2.99069 8.46166 3.42379 8.02833 3.85689 7.59499C6.02238 5.21164 8.62097 3.91163 11.003 2.82829C11.2196 2.82829 11.4361 2.82829 11.6527 2.82829C11.8692 2.82829 12.0858 2.82829 12.3023 3.04496C13.3851 4.1283 14.2513 5.42831 15.334 6.72832C15.5506 7.16166 15.9837 7.37833 16.2002 7.81166C16.2002 7.81166 16.2002 7.81166 15.9837 7.81166C15.7671 8.02833 15.334 8.02833 15.1175 8.24499C15.1175 8.24499 14.9009 8.245 14.9009 8.46167C14.4678 8.67834 14.0347 8.895 14.0347 9.32834C14.0347 9.545 14.0347 9.76168 14.2513 9.97835C14.4678 10.195 14.6844 10.195 15.1175 10.195C15.5506 10.195 15.9837 10.195 16.2002 9.97835C16.4168 9.97835 16.8498 9.545 17.0664 9.32834C17.2829 9.11167 17.4995 8.89501 17.716 8.89501C17.9326 8.89501 18.1491 8.67833 18.3657 8.67833C18.5822 8.67833 18.5822 8.67833 18.7988 8.67833C19.0153 8.67833 19.4484 8.67834 19.665 8.89501C19.8815 8.89501 19.8815 8.89501 20.0981 8.89501C20.0981 8.89501 20.0981 8.89501 20.3146 8.89501C20.3146 8.89501 20.3146 8.895 20.3146 8.67833C20.3146 8.46166 20.3146 8.46166 20.3146 8.24499C20.3146 7.81166 20.5312 7.59499 20.3146 7.16165C19.4484 5.64497 20.3146 4.99497 21.3974 4.1283C21.6139 3.91163 21.6139 3.91163 21.8305 3.69496C22.047 3.69496 22.2636 3.47829 22.2636 3.26162C22.6967 3.04496 22.9132 2.82829 23.1298 2.82829C23.5629 2.82829 23.7794 3.04496 24.2125 3.69496C25.5118 5.21164 27.0277 6.51165 28.327 8.02833L28.7601 8.46167C28.9766 8.67834 29.4097 8.89501 29.6263 8.89501C29.8428 8.89501 30.2759 8.67833 30.709 8.24499C30.9256 7.81166 31.1421 7.59499 30.9256 7.16165C30.9256 6.94498 30.4925 6.51165 30.0594 6.29498C27.8939 5.42831 26.1615 3.91163 25.0787 1.96162V1.74494C24.4291 0.661602 24.2125 0.228271 23.5629 0.228271C23.1298 0.228271 22.6967 0.661608 21.8305 1.31161C20.5312 2.39496 19.4484 3.4783 18.3657 4.56164C17.9326 4.99498 17.4995 5.42831 17.0664 5.86165C15.5506 4.7783 14.6844 3.47829 14.0347 1.74494C13.6016 0.661602 13.1685 0.228271 12.3023 0.228271C11.8692 0.228271 11.4361 0.444933 11.003 0.661602C7.53822 2.61162 4.28999 4.77831 1.25829 6.72832C1.04174 6.94499 0.825195 7.16166 0.825195 7.37833C0.825195 7.59499 0.825195 7.81166 0.825195 8.02833C1.69139 8.46167 2.12449 8.67833 2.34104 8.67833Z" fill="#4E4E4E"/>
</svg>
