<svg width="24" height="10" viewBox="0 0 24 10" fill="none" xmlns="http://www.w3.org/2000/svg">
<path d="M1.2312 6.35773C1.2312 6.35773 1.46814 6.35773 1.2312 6.35773C1.70509 6.35773 1.94203 6.12066 2.17897 6.12066H2.41591C2.8898 5.88358 3.3637 5.64651 3.83758 5.40944C4.54841 4.93529 5.49617 4.46115 6.207 4.22408C7.15477 3.74993 7.62864 3.51286 8.10253 3.51286C8.81335 3.51286 9.28724 3.98701 10.235 4.93529C10.4719 5.17237 10.7089 5.40944 11.1828 5.88358L11.4197 6.12066C11.1828 6.35773 10.9458 6.35773 10.7089 6.5948C9.76112 7.06894 9.05029 7.54309 8.10253 8.01723C7.86558 8.2543 7.86559 8.49138 7.62865 8.96552C7.62865 9.2026 7.62865 9.20259 7.62865 9.20259V9.43967C7.62865 9.43967 7.62864 9.43967 7.86559 9.43967H8.10253C8.33947 9.43967 8.57641 9.67674 9.0503 9.67674C9.28724 9.67674 9.52419 9.43967 9.76113 9.43967C9.76113 9.43967 9.99807 9.43967 9.99807 9.20259C10.9458 8.49138 11.6567 8.25431 12.6044 8.25431C13.0783 8.25431 13.5522 8.49138 14.0261 8.72845C14.263 8.72845 14.5 8.96552 14.7369 8.96552C14.9739 8.96552 15.4477 8.96552 15.9216 8.72845C16.1585 8.72845 16.6324 8.49138 17.1063 8.49138C17.1063 8.49138 17.3433 8.49138 17.3433 8.25431V8.01723C17.1063 7.78016 16.8694 7.54309 16.8694 7.30602C16.6324 7.06895 16.3955 6.83187 16.1586 6.5948C15.2108 5.64651 14.9738 5.40944 15.9216 4.46115C16.3955 3.987 16.8694 3.51286 17.1063 3.51286C17.3433 3.51286 17.8171 3.74993 18.291 3.987C18.7649 4.22408 19.0018 4.69822 19.4757 5.17237C19.9496 5.64651 20.6604 6.12066 21.3713 6.5948C21.6082 6.83187 21.8452 6.83187 22.0821 6.83187C22.3191 6.83187 22.319 6.83187 22.556 6.83187C22.7929 6.83187 22.7929 6.83187 23.0299 6.83187H23.2668V6.5948C23.2668 6.35773 23.2668 6.35773 23.2668 6.12066C23.2668 5.64651 23.0299 5.40944 22.7929 5.17237C22.3191 4.69822 21.6082 3.987 21.1344 3.51286C20.4235 3.03872 19.7127 2.3275 19.2388 1.61628C19.0019 1.37921 18.528 0.905065 18.0541 0.905065C17.8172 0.905065 17.3433 1.14214 17.1063 1.37921C16.8694 1.61628 16.3955 1.85335 16.1586 2.09043C15.4477 2.56457 14.9738 3.03872 14.263 3.74993C14.0261 4.22408 13.7891 4.22408 13.3153 4.22408C13.0783 4.22408 12.8414 3.987 12.3675 3.51286C11.8936 3.03872 11.6567 2.56457 11.1828 2.09043C10.9458 1.61628 10.7089 1.37921 10.4719 0.905065C9.99806 0.43092 9.76112 0.193848 9.28724 0.193848C9.05029 0.193848 8.57641 0.430921 8.10253 0.667993C7.15476 1.37921 5.73311 2.3275 4.31146 3.03872C3.83757 3.27579 3.12675 3.51286 2.65287 3.74993C2.17899 3.987 1.7051 3.98701 1.46816 4.22408C1.23122 4.22408 0.757326 4.69822 0.757326 4.93529V5.17237C0.283442 5.64651 0.757319 6.12066 1.2312 6.35773Z" fill="#4E4E4E"/>
</svg>
